<svg width="141" height="36" viewBox="0 0 141 36" fill="none" xmlns="http://www.w3.org/2000/svg">
<path d="M51.98 13.1575C52.42 13.1575 52.68 13.2175 52.82 13.2575V11.0175C52.6 10.9175 52.06 10.8175 51.5 10.8175C49.32 10.8175 47.92 12.2575 47.92 14.4775V15.5975H46.28V17.8775H47.92V25.4375H50.6V17.8775H52.82V15.5975H50.6V14.5175C50.6 13.4175 51.38 13.1575 51.98 13.1575ZM58.7541 23.3175C57.4541 23.3175 56.2541 22.3575 56.2541 20.5175C56.2541 18.6575 57.4541 17.7175 58.7541 17.7175C60.0541 17.7175 61.2541 18.6575 61.2541 20.5175C61.2541 22.3775 60.0541 23.3175 58.7541 23.3175ZM58.7541 15.2975C55.8141 15.2975 53.5941 17.4775 53.5941 20.5175C53.5941 23.5375 55.8141 25.7375 58.7541 25.7375C61.6941 25.7375 63.9141 23.5375 63.9141 20.5175C63.9141 17.4775 61.6941 15.2975 58.7541 15.2975ZM70.4338 23.3175C69.1338 23.3175 67.9338 22.3575 67.9338 20.5175C67.9338 18.6575 69.1338 17.7175 70.4338 17.7175C71.7338 17.7175 72.9338 18.6575 72.9338 20.5175C72.9338 22.3775 71.7338 23.3175 70.4338 23.3175ZM70.4338 15.2975C67.4938 15.2975 65.2738 17.4775 65.2738 20.5175C65.2738 23.5375 67.4938 25.7375 70.4338 25.7375C73.3738 25.7375 75.5938 23.5375 75.5938 20.5175C75.5938 17.4775 73.3738 15.2975 70.4338 15.2975ZM87.0734 10.9575H84.4534V16.5775C84.1734 16.0575 83.3734 15.3575 81.6734 15.3575C78.8934 15.3575 76.9534 17.6175 76.9534 20.4975C76.9534 23.4775 78.9534 25.6775 81.7534 25.6775C83.0734 25.6775 84.0734 25.0775 84.5134 24.2975C84.5134 24.7575 84.5734 25.2375 84.6134 25.4375H87.1534C87.1134 25.0375 87.0734 24.3175 87.0734 23.6575V10.9575ZM79.6334 20.4975C79.6334 18.7375 80.7134 17.7375 82.0734 17.7375C83.4334 17.7375 84.4934 18.7175 84.4934 20.4775C84.4934 22.2575 83.4334 23.2975 82.0734 23.2975C80.6734 23.2975 79.6334 22.2575 79.6334 20.4975ZM94.3791 17.7575C95.6991 17.7575 96.3191 18.5975 96.5591 19.4175L98.9391 18.6175C98.5191 16.9575 96.9991 15.2975 94.3191 15.2975C91.4591 15.2975 89.2191 17.4775 89.2191 20.5175C89.2191 23.5375 91.4991 25.7375 94.3991 25.7375C97.0191 25.7375 98.5591 24.0575 98.9991 22.4175L96.6591 21.6375C96.4391 22.3975 95.7591 23.2975 94.3991 23.2975C93.0391 23.2975 91.8791 22.2975 91.8791 20.5175C91.8791 18.7375 93.0191 17.7575 94.3791 17.7575ZM103.615 25.4375V15.5975H100.955V25.4375H103.615ZM100.635 12.3775C100.635 13.2575 101.375 13.9975 102.275 13.9975C103.195 13.9975 103.915 13.2575 103.915 12.3775C103.915 11.4575 103.195 10.7175 102.275 10.7175C101.375 10.7175 100.635 11.4575 100.635 12.3775ZM112.463 15.5575C112.263 15.5375 112.063 15.5175 111.843 15.5175C111.003 15.5175 109.643 15.7575 109.043 17.0575V15.5975H106.463V25.4375H109.123V20.9375C109.123 18.8175 110.303 18.1575 111.663 18.1575C111.903 18.1575 112.163 18.1775 112.463 18.2375V15.5575ZM118.656 17.7575C119.976 17.7575 120.596 18.5975 120.836 19.4175L123.216 18.6175C122.796 16.9575 121.276 15.2975 118.596 15.2975C115.736 15.2975 113.496 17.4775 113.496 20.5175C113.496 23.5375 115.776 25.7375 118.676 25.7375C121.296 25.7375 122.836 24.0575 123.276 22.4175L120.936 21.6375C120.716 22.3975 120.036 23.2975 118.676 23.2975C117.316 23.2975 116.156 22.2975 116.156 20.5175C116.156 18.7375 117.296 17.7575 118.656 17.7575ZM127.893 25.4375V10.9575H125.233V25.4375H127.893ZM132.68 19.3975C132.74 18.4975 133.5 17.4575 134.88 17.4575C136.4 17.4575 137.04 18.4175 137.08 19.3975H132.68ZM137.34 21.9575C137.02 22.8375 136.34 23.4575 135.1 23.4575C133.78 23.4575 132.68 22.5175 132.62 21.2175H139.66C139.66 21.1775 139.7 20.7775 139.7 20.3975C139.7 17.2375 137.88 15.2975 134.84 15.2975C132.32 15.2975 130 17.3375 130 20.4775C130 23.7975 132.38 25.7375 135.08 25.7375C137.5 25.7375 139.06 24.3175 139.56 22.6175L137.34 21.9575Z" fill="#0F1624"/>
<path fill-rule="evenodd" clip-rule="evenodd" d="M36 18C36 27.9411 27.9411 36 18 36C8.05887 36 0 27.9411 0 18C0 8.05887 8.05887 0 18 0C27.9411 0 36 8.05887 36 18ZM25.2336 9.93126C25.6856 9.93126 26.0563 10.2986 26.011 10.7483C25.6014 14.8118 22.1704 17.9822 18.0047 17.9822C13.8389 17.9822 10.3995 14.8118 9.98896 10.7483C9.94354 10.2986 10.3143 9.93126 10.7662 9.93126H25.2336ZM13.974 26.8305C16.1976 26.8305 18.0001 25.028 18.0001 22.8044C18.0001 20.5809 16.1976 18.7783 13.974 18.7783C11.7505 18.7783 9.94792 20.5809 9.94792 22.8044C9.94792 25.028 11.7505 26.8305 13.974 26.8305Z" fill="#E44D4D"/>
</svg>
