<?xml version="1.0" encoding="UTF-8"?>
<!-- Generator: Adobe Illustrator 21.1.0, SVG Export Plug-In . SVG Version: 6.00 Build 0)  -->
<svg version="1.1" id="Livello_1" xmlns="http://www.w3.org/2000/svg" xmlns:xlink="http://www.w3.org/1999/xlink" x="0px" y="0px" viewBox="0 0 40 40" style="enable-background:new 0 0 40 40;" xml:space="preserve">
<style type="text/css">
	.st0{fill:#53F9AA;}
</style>
<title>Page 1</title>
<desc>Created with Sketch.</desc>
<g id="Page-1_1_">
	<g id="HOMY-LANDING" transform="translate(-30.000000, -30.000000)">
		<g id="Group" transform="translate(30.000000, 30.000000)">
			<g id="Page-1">
				<path id="Fill-2" class="st0" d="M7.3,37.9c0-0.1-0.1-0.1-0.1-0.2c0-0.1-0.1-0.1-0.1-0.2c-0.2-0.3-0.6-0.4-1-0.3      c-0.1,0-0.1,0-0.2,0.1c-0.1,0-0.1,0.1-0.2,0.1c-0.1,0-0.1,0.1-0.2,0.1c0,0-0.1,0.1-0.1,0.2c0,0.1-0.1,0.1-0.1,0.2      c0,0.1,0,0.1-0.1,0.2c0,0.1,0,0.1,0,0.2c0,0.1,0,0.1,0,0.2c0,0.1,0,0.1,0.1,0.2c0,0.1,0.1,0.1,0.1,0.2c0,0.1,0.1,0.1,0.1,0.2      c0,0.1,0.1,0.1,0.2,0.1c0.1,0,0.1,0.1,0.2,0.1c0.1,0,0.1,0,0.2,0.1c0.1,0,0.1,0,0.2,0c0.1,0,0.1,0,0.2,0c0.1,0,0.1,0,0.2-0.1      c0.1,0,0.1-0.1,0.2-0.1c0.1,0,0.1-0.1,0.2-0.1c0,0,0.1-0.1,0.1-0.2c0-0.1,0.1-0.1,0.1-0.2c0-0.1,0-0.1,0.1-0.2      c0-0.1,0-0.1,0-0.2c0-0.1,0-0.1,0-0.2C7.4,38.1,7.4,38,7.3,37.9 M39.9,19.5c-0.1-0.3-0.4-0.6-0.8-0.6c-1.9-0.3-3.8-0.4-5.7-0.5      c-0.8,0-1.4,0.8-1,1.6c0.2,0.3,0.5,0.5,0.8,0.5c1.9,0.1,3.7,0.2,5.5,0.5c0,0,0.1,0,0.1,0C39.6,21,40.2,20.3,39.9,19.5 M33.5,36      c-0.8,0.1-1.6,0.3-2.5,0.4c-0.3,0-0.6,0.1-0.9,0.1c-0.3,0.1-0.7,0-0.9-0.2c-0.3-0.3-0.5-0.8-0.5-1.4c0-1.2,0.8-2.2,1.7-2.3      c0.4,0,0.8-0.1,1.1-0.1c0,0,0,0,0,0c0.7-0.1,1.5-0.2,2.2-0.2c0.4,0,0.7-0.2,0.8-0.6c0.4-0.9-0.3-1.6-1.1-1.6      c-2.2,0.2-4.4,0.5-6.6,0.7c-0.2,0-0.4,0-0.6,0.1l0,0l-3.4,0.4c-3.3,0.4-6.6,0.6-9.9,0.6c-0.8-0.1-1.5-1-1.5-2.1      c0-1.1,0.7-2,1.6-2c0.4,0,0.8,0,1.2,0h0c0.1,0,0.1,0,0.2,0c0,0,0,0,0,0c0.3-0.1,0.5-0.2,0.6-0.4c0,0,0,0,0-0.1c0,0,0,0,0,0      c0.1-0.1,0.1-0.2,0.1-0.3c0,0,0,0,0-0.1c0,0,0-0.1,0-0.1v-0.1c0-0.5-0.4-0.9-0.8-0.9l-0.3,0h0h0c-0.4,0-0.7,0-1.1,0      c-1.9,0-3.7,0-5.3-0.1c-0.3,0-0.5,0-0.8-0.1c-0.1,0-0.3,0-0.4,0c-0.3,0-0.7,0.1-0.9,0.4c-0.5,0.8,0,1.7,0.7,1.7      c0.1,0,0.1,0,0.2,0c0,0,0,0,0,0c0.2,0,0.4,0,0.6,0.1c0.2,0,0.3,0,0.5,0c0,0,0,0,0,0c0.9,0.1,1.6,1,1.6,2.1      c0,0.6-0.2,1.1-0.6,1.5c-0.2,0.2-0.5,0.3-0.9,0.3c-0.2,0-0.3,0-0.5-0.1c-0.3,0-0.5-0.1-0.8-0.1c-0.6-0.1-1.1,0.3-1.2,0.9      c-0.1,0.6,0.3,1.1,0.9,1.2c0.1,0,0.1,0,0.2,0c0,0,0,0,0,0c0.1,0,0.2,0,0.3,0.1c2.1,0.3,4.1,0.5,6.2,0.5c0,0,0,0,0.1,0      c0.2,0,0.4,0,0.6,0c0.2,0,0.4,0,0.6,0c0,0,0,0,0,0c3.6,0,7.2-0.4,10.8-0.8c0.4,0,0.7,0.1,0.9,0.3c0.4,0.3,0.6,0.8,0.6,1.4      c0,1.2-0.8,2.3-1.7,2.4c-1.3,0.2-2.5,0.3-3.8,0.5c-0.3,0-0.7,0.3-0.8,0.6c-0.3,0.8,0.2,1.6,1,1.6c0,0,0.1,0,0.1,0      c0.9-0.1,1.7-0.2,2.6-0.3c0,0,0,0,0,0c0.4-0.1,0.8-0.1,1.2-0.2c0,0,0,0,0,0c1.8-0.3,3.6-0.5,5.3-0.8c0,0,0,0,0,0l1.1-0.2      c0,0,0,0,0,0c0.8-0.1,1.5-0.2,2.3-0.4c0.3-0.1,0.6-0.3,0.8-0.6C34.9,36.6,34.2,35.9,33.5,36 M32.1,13.9c0,0.1,0.1,0.1,0.1,0.2      c0,0.1,0.1,0.1,0.1,0.2c0,0.1,0.1,0.1,0.2,0.1c0.1,0,0.1,0.1,0.2,0.1c0.1,0,0.1,0,0.2,0.1c0.1,0,0.1,0,0.2,0c0.1,0,0.1,0,0.2,0      c0.1,0,0.1,0,0.2-0.1c0.1,0,0.1-0.1,0.2-0.1c0.1,0,0.1-0.1,0.2-0.1c0,0,0.1-0.1,0.1-0.2c0-0.1,0.1-0.1,0.1-0.2      c0-0.1,0-0.1,0.1-0.2c0-0.1,0-0.1,0-0.2c0-0.1,0-0.1,0-0.2c0-0.1,0-0.1-0.1-0.2c0-0.1-0.1-0.1-0.1-0.2c0-0.1-0.1-0.1-0.1-0.2      c0-0.1-0.1-0.1-0.2-0.1c-0.1,0-0.1-0.1-0.2-0.1c-0.1,0-0.2-0.1-0.3-0.1c-0.1,0-0.2,0-0.3,0c-0.1,0-0.2,0-0.3,0.1      c-0.1,0-0.1,0.1-0.2,0.1c-0.1,0-0.1,0.1-0.2,0.1c0,0-0.1,0.1-0.1,0.2c0,0.1-0.1,0.1-0.1,0.2c0,0.1,0,0.1-0.1,0.2      c0,0.1,0,0.1,0,0.2c0,0.1,0,0.1,0,0.2C32.1,13.8,32.1,13.9,32.1,13.9 M7,21.8c0.4,0,0.8,0,1.1,0h0c0,0,0.1,0,0.1,0      c0.1,0,0.3,0,0.4,0c3.2,0,6.3-0.2,8.9-0.5c0.6-0.1,1-0.6,1-1.2c-0.1-0.6-0.6-1-1.1-1c-0.9,0.1-1.9,0.2-2.9,0.2c0,0,0,0,0,0      c-0.4,0-0.8,0-1.1,0.1c-0.4,0-0.7-0.2-0.9-0.4c-0.4-0.3-0.6-0.9-0.6-1.5c0,0,0,0,0,0v0c0-1.1,0.8-2.1,1.7-2.2      c0.4,0,0.8-0.1,1.1-0.1c0,0,0,0,0,0c0.4,0,0.7-0.1,1.1-0.1c0,0,0,0,0,0c0.3,0,0.5-0.1,0.8-0.1c4.2-0.4,8.6-0.8,12.8-0.8      c0.6,0,1.1-0.5,1.1-1.1c0-0.6-0.5-1.1-1-1.1c-2.4-0.1-4.9,0.1-7.4,0.3c0,0,0,0,0,0c-0.2,0-0.5,0-0.7,0.1c0,0,0,0,0,0      c-0.1,0-0.3,0-0.4,0c-0.4,0-0.7-0.2-0.9-0.3c-0.4-0.3-0.6-0.9-0.6-1.5c0-1.2,0.8-2.2,1.6-2.3c0.1,0,0.1,0,0.2,0      c0.2,0,0.3,0,0.5,0c1.2-0.1,2.5-0.2,3.7-0.2c0.6,0,1.1-0.5,1-1.1C26.5,6.5,26,6,25.4,6h0c-1.1,0-2.2,0.1-3.4,0.1c0,0,0,0,0,0      c-0.1,0-0.2,0-0.4,0c-0.2,0-0.4,0-0.6,0c-0.1,0-0.1,0-0.2,0c0,0,0,0,0,0c-1.7,0.1-3.5,0.3-5.2,0.5c0,0,0,0,0,0      c-0.4,0-0.7,0.1-1.1,0.1c0,0,0,0-0.1,0c0,0-0.1,0-0.1,0c0,0-0.1,0-0.1,0c0,0,0,0,0,0c-0.1,0-0.1,0-0.2,0.1c0,0,0,0,0,0      c-0.2,0.1-0.4,0.4-0.5,0.6c0,0,0,0,0,0c0,0.1,0,0.1,0,0.2c0,0.1,0,0.1,0,0.2c0,0.1,0,0.1,0,0.2c0,0,0,0,0,0.1c0,0,0,0.1,0.1,0.1      c0,0,0,0,0,0.1c0,0,0,0.1,0.1,0.1c0,0,0,0,0.1,0.1c0,0,0.1,0.1,0.1,0.1c0,0,0,0,0.1,0c0,0,0.1,0,0.1,0.1c0,0,0,0,0.1,0      c0,0,0.1,0,0.1,0c0,0,0.1,0,0.1,0c0,0,0.1,0,0.1,0c0,0,0.1,0,0.1,0c0,0,0,0,0,0c0,0,0.1,0,0.1,0c0.4,0,0.8-0.1,1.1-0.1      c0.3,0,0.6,0.1,0.8,0.3c0.4,0.3,0.6,0.9,0.6,1.5c0,1.2-0.8,2.2-1.6,2.3c-2.5,0.2-5,0.5-7.4,0.6h0c-0.2,0-0.4,0-0.5,0      c-0.3,0-0.5,0-0.8,0c-0.6,0-1,0.5-1,1.1c0,0.6,0.5,1,1.1,1c0,0,0,0,0,0c0.1,0,0.1,0,0.2,0c0,0,0,0,0,0c0.2,0,0.4,0,0.6,0      c0.2,0,0.4,0,0.6,0c0.4,0,0.7,0.2,0.9,0.4c0.4,0.3,0.5,0.9,0.5,1.5v0c0,0.6-0.2,1.2-0.6,1.6c-0.2,0.2-0.5,0.4-0.8,0.4      c-2.3,0-4.7-0.1-7.1-0.5c-0.6-0.1-1.1,0.3-1.2,0.9c-0.1,0.6,0.3,1.1,0.9,1.2C2.9,21.6,5,21.7,7,21.8C7,21.8,7,21.8,7,21.8"/>
				<path id="Fill-3" class="st0" d="M19.1,1.5c-0.4-0.9,0.5-1.8,1.4-1.4c0.2,0.1,0.4,0.2,0.4,0.4c0.4,0.9-0.5,1.8-1.4,1.4      C19.3,1.8,19.2,1.7,19.1,1.5"/>
				<path id="Fill-4" class="st0" d="M22.5,24.6c-1.2,0.1-2.4,0.2-3.5,0.3c-0.4,0-0.7,0.2-0.8,0.6c-0.4,0.8,0.2,1.5,1,1.5      c0,0,0.1,0,0.1,0c0.8-0.1,1.5-0.1,2.3-0.2c0,0,0,0,0,0c0.4,0,0.8-0.1,1.2-0.1c0,0,0,0,0,0c0.3,0,0.6-0.1,0.8-0.1      c1.7-0.2,3.4-0.3,5.1-0.4c0.1,0,0.1,0,0.2,0c1.7-0.1,3.5-0.2,5.2-0.3c0.4,0,0.7-0.2,0.9-0.5c0.4-0.8-0.2-1.6-1-1.6      c-1.6,0-3.2,0.1-4.8,0.3c0,0,0,0,0,0c-0.1,0-0.2,0-0.3,0c-0.1,0-0.2,0-0.2,0c-0.2,0-0.4,0-0.6,0c-0.4,0-0.8-0.2-0.9-0.3      c-0.4-0.3-0.6-0.9-0.6-1.5c0-1.1,0.8-2.1,1.6-2.2c0,0,0.1,0,0.1,0c0.4,0,0.7,0,1.1,0c0,0,0.1,0,0.1,0c0,0,0.1,0,0.1,0      c0,0,0,0,0,0c0.1,0,0.1,0,0.2-0.1c0,0,0,0,0,0c0.4-0.2,0.6-0.6,0.6-1c0,0,0,0,0,0c0-0.5-0.4-0.9-0.9-1c-0.1,0-0.1,0-0.2,0h0l0,0      c0,0,0,0,0,0c-0.4,0-0.7,0-1.1,0c0,0-0.1,0-0.1,0c0,0,0,0,0,0c-1.7,0.1-3.5,0.2-5.4,0.4h0c0,0,0,0,0,0c-0.3,0-0.5,0-0.8,0.1      c-0.1,0-0.2,0-0.3,0c-0.1,0-0.1,0-0.2,0c0,0,0,0-0.1,0c0,0-0.1,0-0.1,0.1c0,0-0.1,0.1-0.1,0.1c0,0,0,0,0,0      c-0.1,0-0.1,0.1-0.1,0.1c0,0,0,0,0,0c0,0.1-0.1,0.1-0.1,0.2c0,0,0,0,0,0c0,0.1-0.1,0.1-0.1,0.2c0,0,0,0,0,0c0,0.1-0.1,0.3,0,0.4      c0,0,0,0,0,0v0c0,0.1,0,0.1,0,0.2c0,0,0,0,0,0c0,0.1,0,0.1,0.1,0.2c0,0,0,0,0,0c0,0,0.1,0.1,0.1,0.1c0,0,0,0,0,0      c0,0,0.1,0.1,0.1,0.1c0,0,0,0,0,0c0,0,0.1,0.1,0.1,0.1c0,0,0,0,0,0c0,0,0.1,0,0.1,0.1c0,0,0,0,0.1,0c0,0,0.1,0,0.1,0      c0,0,0.1,0,0.1,0c0,0,0,0,0.1,0c0,0,0.1,0,0.1,0h0c0.4,0,0.7-0.1,1.1-0.1c0,0,0,0,0,0c0.4,0,0.7,0.2,0.9,0.3      c0.4,0.3,0.6,0.9,0.6,1.5C24.2,23.5,23.4,24.5,22.5,24.6"/>
				<path id="Fill-5" class="st0" d="M16.9,38.2c-2.4,0.1-4.6,0-6.7-0.2c-0.8-0.1-1.5,0.5-1.1,1.3c0.1,0.3,0.4,0.5,0.8,0.5      c1.6,0.2,3.3,0.2,5.1,0.2c0.7,0,1.3,0,2,0c0.4,0,0.7-0.2,0.9-0.5C18.3,38.8,17.7,38.2,16.9,38.2"/>
			</g>
		</g>
	</g>
</g>
</svg>