<?xml version="1.0" encoding="utf-8"?>
<!-- Generator: Adobe Illustrator 26.2.0, SVG Export Plug-In . SVG Version: 6.00 Build 0)  -->
<svg version="1.1" id="Basi" xmlns="http://www.w3.org/2000/svg" xmlns:xlink="http://www.w3.org/1999/xlink" x="0px" y="0px"
	 viewBox="0 0 492.057 304.635" style="enable-background:new 0 0 492.057 304.635;" xml:space="preserve">
<style type="text/css">
	.st0{fill:#FFFFFF;}
</style>
<g>
	<g>
		<g>
			<path class="st0" d="M23.247,291.132c-1.653,0-3.216-0.3-4.69-0.897c-1.475-0.597-2.762-1.455-3.864-2.57
				c-1.101-1.115-1.976-2.465-2.624-4.049c-0.649-1.584-0.973-3.345-0.973-5.286v-0.096c0-1.778,0.291-3.444,0.873-4.995
				c0.582-1.552,1.398-2.902,2.449-4.049c1.05-1.147,2.287-2.044,3.709-2.692c1.423-0.646,2.974-0.97,4.655-0.97
				c1.843,0,3.458,0.364,4.849,1.092c1.389,0.727,2.562,1.689,3.516,2.885c0.954,1.196,1.665,2.562,2.134,4.098
				c0.468,1.536,0.702,3.127,0.702,4.776v0.533H12.746c0.064,1.642,0.397,3.13,0.998,4.466c0.601,1.336,1.373,2.462,2.315,3.379
				c0.942,0.918,2.038,1.627,3.289,2.125c1.251,0.499,2.56,0.747,3.925,0.747c1.916,0,3.622-0.436,5.117-1.309
				c1.493-0.873,2.729-1.941,3.704-3.2l1.164,0.922c-1.133,1.455-2.526,2.666-4.178,3.636S25.482,291.132,23.247,291.132z
				 M32.336,277.507c-0.065-1.319-0.318-2.606-0.755-3.861c-0.44-1.255-1.056-2.374-1.852-3.356
				c-0.796-0.981-1.788-1.769-2.974-2.365c-1.186-0.595-2.542-0.893-4.068-0.893c-1.397,0-2.689,0.267-3.875,0.797
				s-2.217,1.262-3.094,2.196c-0.878,0.933-1.575,2.044-2.096,3.331c-0.519,1.287-0.813,2.671-0.877,4.15H32.336z"/>
			<path class="st0" d="M41.354,255.153h1.65v35.397h-1.65V255.153z"/>
			<path class="st0" d="M62.718,291.132c-1.653,0-3.216-0.3-4.69-0.897c-1.475-0.597-2.762-1.455-3.864-2.57
				c-1.101-1.115-1.976-2.465-2.624-4.049c-0.649-1.584-0.973-3.345-0.973-5.286v-0.096c0-1.778,0.291-3.444,0.873-4.995
				c0.582-1.552,1.398-2.902,2.449-4.049c1.05-1.147,2.287-2.044,3.709-2.692c1.423-0.646,2.974-0.97,4.655-0.97
				c1.843,0,3.458,0.364,4.849,1.092c1.389,0.727,2.562,1.689,3.516,2.885c0.954,1.196,1.665,2.562,2.134,4.098
				c0.468,1.536,0.702,3.127,0.702,4.776v0.533H52.216c0.064,1.642,0.397,3.13,0.998,4.466c0.601,1.336,1.373,2.462,2.315,3.379
				c0.942,0.918,2.038,1.627,3.289,2.125c1.251,0.499,2.56,0.747,3.925,0.747c1.916,0,3.622-0.436,5.117-1.309
				c1.493-0.873,2.729-1.941,3.704-3.2l1.164,0.922c-1.133,1.455-2.526,2.666-4.178,3.636S64.953,291.132,62.718,291.132z
				 M71.806,277.507c-0.065-1.319-0.318-2.606-0.755-3.861c-0.44-1.255-1.056-2.374-1.852-3.356
				c-0.796-0.981-1.788-1.769-2.974-2.365c-1.186-0.595-2.542-0.893-4.068-0.893c-1.397,0-2.689,0.267-3.875,0.797
				s-2.217,1.262-3.094,2.196c-0.878,0.933-1.575,2.044-2.096,3.331c-0.519,1.287-0.813,2.671-0.877,4.15H71.806z"/>
			<path class="st0" d="M91.299,291.132c-1.746,0-3.379-0.34-4.897-1.018c-1.52-0.679-2.836-1.601-3.952-2.765
				c-1.115-1.164-1.997-2.513-2.643-4.049c-0.647-1.535-0.97-3.176-0.97-4.922v-0.097c0-1.712,0.323-3.345,0.97-4.897
				c0.646-1.551,1.528-2.909,2.643-4.073c1.115-1.164,2.431-2.084,3.952-2.763c1.519-0.679,3.168-1.019,4.946-1.019
				c1.132,0,2.166,0.127,3.103,0.377c0.938,0.25,1.794,0.582,2.57,0.993c0.777,0.413,1.503,0.893,2.183,1.443
				c0.679,0.55,1.309,1.132,1.891,1.746l-1.115,1.115c-1.066-1.132-2.296-2.11-3.685-2.934c-1.391-0.824-3.054-1.237-4.995-1.237
				c-1.551,0-2.981,0.299-4.291,0.893c-1.309,0.596-2.448,1.401-3.418,2.415c-0.97,1.014-1.73,2.197-2.279,3.549
				c-0.55,1.352-0.824,2.801-0.824,4.345v0.096c0,1.546,0.282,3.002,0.849,4.371c0.565,1.368,1.341,2.567,2.328,3.597
				c0.986,1.03,2.14,1.843,3.467,2.438c1.325,0.596,2.747,0.893,4.267,0.893c1.939,0,3.62-0.428,5.042-1.284
				c1.423-0.856,2.667-1.883,3.735-3.08l1.115,0.97c-1.197,1.391-2.587,2.554-4.171,3.491
				C95.534,290.663,93.594,291.132,91.299,291.132z"/>
			<path class="st0" d="M115.737,290.986c-1.971,0-3.548-0.558-4.727-1.673c-1.18-1.115-1.77-2.788-1.77-5.018v-16.778h-3.734
				v-1.407h3.734v-8.194h1.552v8.194h8.873v1.407h-8.873v16.596c0,1.806,0.443,3.153,1.333,4.04c0.888,0.887,2.14,1.33,3.758,1.33
				c1.196,0,2.425-0.274,3.685-0.824v1.502C118.437,290.712,117.16,290.986,115.737,290.986z"/>
			<path class="st0" d="M126.55,266.111h1.552v7.469c0.355-1.034,0.856-2.037,1.503-3.007c0.646-0.97,1.406-1.826,2.279-2.57
				c0.873-0.743,1.867-1.333,2.983-1.77c1.115-0.436,2.319-0.637,3.612-0.606v1.601h-0.242c-1.487,0-2.853,0.331-4.098,0.993
				c-1.245,0.663-2.311,1.535-3.2,2.619c-0.89,1.083-1.584,2.337-2.085,3.758c-0.501,1.423-0.751,2.877-0.751,4.364v11.589h-1.552
				V266.111z"/>
			<path class="st0" d="M154.966,291.132c-1.875,0-3.589-0.34-5.141-1.018c-1.551-0.679-2.885-1.601-4-2.765
				c-1.115-1.164-1.98-2.513-2.594-4.049c-0.614-1.535-0.922-3.159-0.922-4.873v-0.097c0-1.712,0.308-3.345,0.922-4.897
				c0.614-1.552,1.479-2.909,2.594-4.073c1.115-1.164,2.457-2.093,4.025-2.788c1.568-0.695,3.29-1.043,5.165-1.043
				c1.874,0,3.58,0.34,5.115,1.019c1.535,0.679,2.861,1.6,3.976,2.763c1.115,1.164,1.98,2.515,2.594,4.049
				c0.614,1.537,0.922,3.161,0.922,4.874v0.096c0,1.714-0.308,3.347-0.922,4.897c-0.614,1.552-1.479,2.91-2.594,4.073
				c-1.115,1.164-2.448,2.094-4,2.789C158.553,290.785,156.84,291.132,154.966,291.132z M154.99,289.629
				c1.619,0,3.102-0.297,4.446-0.893c1.345-0.595,2.503-1.407,3.475-2.438c0.972-1.029,1.724-2.221,2.26-3.572
				c0.534-1.352,0.802-2.801,0.802-4.346v-0.097c0-1.544-0.276-2.993-0.827-4.345c-0.551-1.351-1.32-2.543-2.308-3.573
				c-0.988-1.029-2.162-1.842-3.523-2.438c-1.36-0.595-2.835-0.893-4.422-0.893c-1.62,0-3.103,0.299-4.446,0.893
				c-1.346,0.596-2.495,1.409-3.45,2.438c-0.956,1.03-1.701,2.223-2.237,3.573c-0.534,1.352-0.801,2.801-0.801,4.345v0.097
				c0,1.546,0.274,2.994,0.825,4.346c0.551,1.351,1.32,2.543,2.308,3.572c0.988,1.03,2.155,1.843,3.499,2.438
				C151.936,289.332,153.402,289.629,154.99,289.629z"/>
			<path class="st0" d="M174.894,266.111h1.552v5.819c0.291-0.71,0.695-1.446,1.213-2.206c0.517-0.759,1.164-1.455,1.939-2.085
				s1.68-1.139,2.716-1.528c1.034-0.387,2.214-0.582,3.54-0.582c1.615,0,3.047,0.26,4.291,0.777
				c1.243,0.518,2.294,1.252,3.152,2.206c0.856,0.954,1.511,2.085,1.964,3.394c0.452,1.31,0.679,2.757,0.679,4.34v14.305h-1.552
				v-14.034c0-2.838-0.743-5.128-2.23-6.871c-1.488-1.742-3.654-2.613-6.498-2.613c-1.293,0-2.497,0.25-3.612,0.75
				c-1.115,0.501-2.085,1.187-2.91,2.057c-0.824,0.872-1.479,1.903-1.964,3.097c-0.486,1.195-0.728,2.485-0.728,3.871v13.744h-1.552
				V266.111z"/>
			<path class="st0" d="M204.521,256.413h2.134v2.958h-2.134V256.413z M204.763,266.111h1.65v24.44h-1.65V266.111z"/>
			<path class="st0" d="M226.438,291.132c-1.746,0-3.379-0.34-4.897-1.018c-1.52-0.679-2.836-1.601-3.952-2.765
				c-1.115-1.164-1.997-2.513-2.643-4.049c-0.647-1.535-0.97-3.176-0.97-4.922v-0.097c0-1.712,0.323-3.345,0.97-4.897
				c0.646-1.551,1.528-2.909,2.643-4.073c1.115-1.164,2.431-2.084,3.952-2.763c1.519-0.679,3.168-1.019,4.946-1.019
				c1.132,0,2.166,0.127,3.103,0.377c0.938,0.25,1.794,0.582,2.57,0.993c0.777,0.413,1.503,0.893,2.183,1.443
				c0.679,0.55,1.309,1.132,1.891,1.746l-1.115,1.115c-1.066-1.132-2.296-2.11-3.685-2.934c-1.391-0.824-3.054-1.237-4.995-1.237
				c-1.551,0-2.981,0.299-4.291,0.893c-1.309,0.596-2.448,1.401-3.418,2.415c-0.97,1.014-1.73,2.197-2.279,3.549
				c-0.55,1.352-0.824,2.801-0.824,4.345v0.096c0,1.546,0.282,3.002,0.848,4.371c0.565,1.368,1.341,2.567,2.328,3.597
				c0.986,1.03,2.14,1.843,3.467,2.438c1.325,0.596,2.747,0.893,4.267,0.893c1.939,0,3.62-0.428,5.042-1.284
				c1.423-0.856,2.667-1.883,3.735-3.08l1.115,0.97c-1.197,1.391-2.587,2.554-4.171,3.491
				C230.673,290.663,228.734,291.132,226.438,291.132z"/>
			<path class="st0" d="M264.698,290.986c-1.746,0-3.499-0.323-5.261-0.969c-1.762-0.646-3.321-1.535-4.68-2.667l0.922-1.212
				c1.354,1.068,2.812,1.892,4.374,2.474c1.564,0.582,3.135,0.873,4.714,0.873c0.968,0,1.878-0.12,2.731-0.363
				c0.855-0.242,1.596-0.59,2.224-1.041s1.12-0.992,1.475-1.621c0.354-0.628,0.532-1.314,0.532-2.056v-0.097
				c0-0.872-0.21-1.597-0.629-2.178c-0.419-0.581-0.975-1.073-1.668-1.477c-0.693-0.402-1.483-0.75-2.37-1.039
				c-0.886-0.291-1.796-0.565-2.73-0.823c-1.128-0.323-2.208-0.661-3.239-1.016c-1.032-0.355-1.934-0.774-2.707-1.259
				c-0.774-0.483-1.386-1.072-1.838-1.766c-0.451-0.693-0.677-1.556-0.677-2.589v-0.096c0-0.904,0.201-1.742,0.605-2.516
				c0.402-0.775,0.966-1.452,1.692-2.033c0.724-0.581,1.594-1.033,2.611-1.355c1.015-0.323,2.151-0.484,3.408-0.484
				c1.418,0,2.876,0.242,4.375,0.727c1.5,0.484,2.894,1.164,4.185,2.037l-0.873,1.31c-1.156-0.841-2.408-1.479-3.757-1.916
				c-1.348-0.436-2.665-0.654-3.949-0.654c-2.024,0-3.638,0.46-4.841,1.379c-1.205,0.92-1.806,2.057-1.806,3.411v0.097
				c0,0.774,0.2,1.428,0.604,1.96c0.402,0.532,0.942,1.001,1.62,1.403c0.677,0.404,1.457,0.75,2.344,1.041
				c0.886,0.291,1.829,0.581,2.827,0.872c1.096,0.291,2.16,0.613,3.191,0.968c1.03,0.355,1.933,0.791,2.707,1.306
				c0.773,0.517,1.393,1.145,1.861,1.888c0.467,0.742,0.701,1.646,0.701,2.71v0.096c0,1.001-0.227,1.912-0.679,2.735
				c-0.452,0.823-1.066,1.524-1.842,2.105c-0.777,0.581-1.691,1.033-2.74,1.355C267.065,290.826,265.925,290.986,264.698,290.986z"
				/>
			<path class="st0" d="M280.99,256.413h2.134v2.958h-2.134V256.413z M281.232,266.111h1.65v24.44h-1.65V266.111z"/>
			<path class="st0" d="M302.784,298.455c-4.114,0-7.84-1.261-11.175-3.782l0.922-1.261c3.103,2.36,6.514,3.54,10.232,3.54
				c1.551,0,2.958-0.218,4.218-0.655c1.261-0.436,2.344-1.083,3.249-1.939c0.905-0.857,1.607-1.933,2.11-3.225
				c0.5-1.292,0.751-2.795,0.751-4.509v-4.413c-0.936,1.875-2.322,3.435-4.16,4.68c-1.839,1.245-4.002,1.866-6.484,1.866
				c-1.58,0-3.089-0.291-4.524-0.873c-1.436-0.582-2.702-1.389-3.798-2.424c-1.097-1.034-1.969-2.256-2.613-3.662
				c-0.646-1.406-0.968-2.934-0.968-4.582v-0.097c0-1.648,0.322-3.184,0.968-4.607c0.645-1.421,1.516-2.649,2.613-3.685
				c1.096-1.034,2.362-1.843,3.798-2.425c1.436-0.582,2.944-0.873,4.524-0.873c1.225,0,2.387,0.163,3.484,0.486
				c1.097,0.323,2.097,0.775,3,1.357c0.902,0.582,1.701,1.269,2.394,2.061c0.693,0.792,1.282,1.641,1.766,2.546v-5.868h1.648v20.706
				c0,1.811-0.276,3.418-0.827,4.824c-0.55,1.406-1.328,2.611-2.331,3.613c-1.037,1.034-2.31,1.825-3.816,2.376
				C306.259,298.179,304.599,298.455,302.784,298.455z M302.567,287.253c1.423,0,2.78-0.258,4.073-0.775
				c1.293-0.517,2.425-1.22,3.395-2.11c0.969-0.888,1.746-1.947,2.328-3.176c0.582-1.228,0.873-2.553,0.873-3.976v-0.097
				c0-1.421-0.291-2.747-0.873-3.976c-0.582-1.228-1.359-2.294-2.328-3.2c-0.97-0.905-2.102-1.616-3.395-2.133
				c-1.293-0.518-2.651-0.777-4.073-0.777c-1.423,0-2.763,0.251-4.025,0.752c-1.26,0.501-2.36,1.205-3.297,2.108
				c-0.938,0.906-1.682,1.965-2.231,3.176c-0.55,1.212-0.824,2.547-0.824,4.002v0.096c0,1.423,0.274,2.748,0.824,3.976
				c0.55,1.229,1.293,2.297,2.231,3.2c0.937,0.906,2.037,1.618,3.297,2.134C299.804,286.995,301.145,287.253,302.567,287.253z"/>
			<path class="st0" d="M323.757,266.111h1.552v5.819c0.291-0.71,0.695-1.446,1.212-2.206c0.517-0.759,1.164-1.455,1.939-2.085
				c0.775-0.631,1.68-1.139,2.716-1.528c1.034-0.387,2.214-0.582,3.54-0.582c1.615,0,3.047,0.26,4.291,0.777
				c1.243,0.518,2.294,1.252,3.152,2.206c0.856,0.954,1.511,2.085,1.964,3.394c0.452,1.31,0.679,2.757,0.679,4.34v14.305h-1.552
				v-14.034c0-2.838-0.743-5.128-2.23-6.871c-1.488-1.742-3.654-2.613-6.498-2.613c-1.293,0-2.497,0.25-3.612,0.75
				c-1.115,0.501-2.085,1.187-2.909,2.057c-0.824,0.872-1.479,1.903-1.964,3.097c-0.486,1.195-0.728,2.485-0.728,3.871v13.744
				h-1.552V266.111z"/>
			<path class="st0" d="M360.56,291.132c-1.164,0-2.303-0.155-3.418-0.463c-1.115-0.308-2.108-0.778-2.981-1.41
				c-0.873-0.632-1.569-1.419-2.085-2.358c-0.518-0.941-0.777-2.028-0.777-3.261v-0.096c0-1.265,0.274-2.392,0.825-3.381
				c0.549-0.989,1.301-1.816,2.255-2.481c0.952-0.664,2.093-1.166,3.418-1.507c1.325-0.341,2.763-0.511,4.316-0.511
				c1.714,0,3.298,0.135,4.753,0.401c1.455,0.268,2.78,0.601,3.976,1.002v-1.641c0-2.765-0.768-4.823-2.303-6.174
				c-1.535-1.35-3.677-2.025-6.425-2.025c-1.52,0-2.917,0.186-4.194,0.558c-1.278,0.372-2.53,0.865-3.758,1.479l-0.582-1.359
				c1.357-0.652,2.722-1.179,4.096-1.58c1.374-0.401,2.885-0.601,4.535-0.601c3.394,0,5.981,0.889,7.758,2.667
				c0.775,0.807,1.374,1.785,1.794,2.933c0.419,1.148,0.631,2.481,0.631,4.002v15.226h-1.552v-5.091
				c-0.323,0.678-0.775,1.35-1.357,2.012s-1.302,1.269-2.158,1.817c-0.856,0.551-1.851,0.995-2.983,1.334
				C363.211,290.963,361.951,291.132,360.56,291.132z M360.657,289.629c1.487,0,2.853-0.217,4.098-0.651
				c1.245-0.436,2.319-1.023,3.225-1.764c0.905-0.741,1.616-1.602,2.133-2.584c0.518-0.982,0.777-2.021,0.777-3.116v-2.995
				c-1.197-0.386-2.506-0.708-3.928-0.965c-1.423-0.258-3.054-0.387-4.897-0.387c-1.357,0-2.594,0.137-3.709,0.411
				c-1.115,0.274-2.069,0.677-2.861,1.207c-0.792,0.532-1.415,1.192-1.867,1.98s-0.678,1.682-0.678,2.681v0.096
				c0,0.998,0.21,1.876,0.631,2.633c0.419,0.756,0.986,1.392,1.697,1.907c0.71,0.515,1.527,0.902,2.448,1.16
				C358.645,289.501,359.623,289.629,360.657,289.629z"/>
			<path class="st0" d="M388.734,290.986c-1.971,0-3.548-0.558-4.727-1.673c-1.18-1.115-1.77-2.788-1.77-5.018v-16.778h-3.734
				v-1.407h3.734v-8.194h1.552v8.194h8.873v1.407h-8.873v16.596c0,1.806,0.443,3.153,1.333,4.04c0.888,0.887,2.14,1.33,3.758,1.33
				c1.196,0,2.425-0.274,3.685-0.824v1.502C391.433,290.712,390.156,290.986,388.734,290.986z"/>
			<path class="st0" d="M409.147,291.132c-1.616,0-3.047-0.259-4.291-0.775c-1.245-0.517-2.296-1.252-3.152-2.207
				c-0.857-0.952-1.511-2.085-1.964-3.394c-0.454-1.309-0.679-2.756-0.679-4.34v-14.305h1.552v14.034
				c0,2.839,0.743,5.129,2.23,6.871c1.487,1.743,3.653,2.613,6.498,2.613c1.292,0,2.497-0.25,3.612-0.75
				c1.115-0.5,2.085-1.186,2.91-2.056c0.824-0.872,1.479-1.903,1.964-3.098c0.486-1.193,0.728-2.484,0.728-3.871v-13.744h1.551
				v24.44h-1.551v-5.819c-0.291,0.745-0.696,1.487-1.212,2.23c-0.518,0.745-1.164,1.43-1.939,2.061
				c-0.777,0.631-1.691,1.139-2.74,1.528C411.612,290.939,410.441,291.132,409.147,291.132z"/>
			<path class="st0" d="M429.124,266.111h1.552v7.469c0.355-1.034,0.856-2.037,1.503-3.007c0.646-0.97,1.406-1.826,2.279-2.57
				c0.873-0.743,1.867-1.333,2.983-1.77c1.115-0.436,2.319-0.637,3.612-0.606v1.601h-0.242c-1.487,0-2.853,0.331-4.098,0.993
				c-1.245,0.663-2.311,1.535-3.2,2.619c-0.889,1.083-1.584,2.337-2.085,3.758c-0.501,1.423-0.751,2.877-0.751,4.364v11.589h-1.552
				V266.111z"/>
			<path class="st0" d="M457.083,291.132c-1.653,0-3.216-0.3-4.69-0.897c-1.475-0.597-2.762-1.455-3.864-2.57
				c-1.101-1.115-1.976-2.465-2.624-4.049c-0.649-1.584-0.973-3.345-0.973-5.286v-0.096c0-1.778,0.291-3.444,0.873-4.995
				c0.582-1.552,1.398-2.902,2.449-4.049c1.05-1.147,2.287-2.044,3.709-2.692c1.423-0.646,2.974-0.97,4.655-0.97
				c1.843,0,3.458,0.364,4.849,1.092c1.389,0.727,2.562,1.689,3.516,2.885c0.954,1.196,1.665,2.562,2.134,4.098
				c0.468,1.536,0.702,3.127,0.702,4.776v0.533h-21.238c0.064,1.642,0.397,3.13,0.998,4.466c0.601,1.336,1.373,2.462,2.315,3.379
				c0.942,0.918,2.038,1.627,3.289,2.125c1.251,0.499,2.56,0.747,3.925,0.747c1.916,0,3.622-0.436,5.117-1.309
				c1.493-0.873,2.729-1.941,3.704-3.2l1.164,0.922c-1.133,1.455-2.526,2.666-4.178,3.636S459.318,291.132,457.083,291.132z
				 M466.171,277.507c-0.065-1.319-0.318-2.606-0.755-3.861c-0.44-1.255-1.056-2.374-1.852-3.356
				c-0.796-0.981-1.788-1.769-2.974-2.365c-1.186-0.595-2.542-0.893-4.068-0.893c-1.397,0-2.689,0.267-3.875,0.797
				c-1.186,0.531-2.217,1.262-3.094,2.196c-0.878,0.933-1.575,2.044-2.096,3.331c-0.519,1.287-0.813,2.671-0.877,4.15H466.171z"/>
		</g>
	</g>
	<g>
		<rect x="10.449" y="236.656" class="st0" width="457.788" height="2.047"/>
	</g>
	<g>
		<path class="st0" d="M30.314,209.193c-3.349,0-6.714-0.62-10.094-1.86c-3.381-1.241-6.373-2.945-8.977-5.117l1.767-2.326
			c2.595,2.047,5.393,3.629,8.393,4.745s6.014,1.674,9.044,1.674c1.855,0,3.6-0.231,5.241-0.696
			c1.638-0.464,3.059-1.129,4.266-1.996c1.205-0.866,2.148-1.902,2.829-3.109c0.681-1.206,1.02-2.521,1.02-3.946v-0.186
			c0-1.671-0.402-3.063-1.206-4.177s-1.871-2.058-3.199-2.831c-1.33-0.774-2.845-1.439-4.546-1.996
			c-1.7-0.558-3.445-1.083-5.238-1.579c-2.164-0.619-4.235-1.269-6.214-1.95c-1.98-0.681-3.711-1.486-5.194-2.415
			c-1.484-0.927-2.658-2.056-3.525-3.388c-0.866-1.332-1.298-2.988-1.298-4.968v-0.186c0-1.733,0.386-3.341,1.159-4.827
			c0.773-1.486,1.855-2.785,3.245-3.9c1.392-1.114,3.062-1.98,5.009-2.599c1.948-0.619,4.127-0.928,6.541-0.928
			c2.72,0,5.518,0.464,8.393,1.393c2.875,0.931,5.551,2.233,8.027,3.909l-1.674,2.511c-2.219-1.611-4.621-2.836-7.208-3.675
			c-2.588-0.837-5.113-1.255-7.576-1.255c-3.881,0-6.976,0.882-9.286,2.647c-2.312,1.765-3.466,3.945-3.466,6.543v0.187
			c0,1.486,0.385,2.74,1.159,3.761c0.773,1.02,1.809,1.919,3.107,2.692c1.298,0.774,2.797,1.439,4.498,1.996
			c1.701,0.559,3.509,1.115,5.427,1.673c2.102,0.558,4.143,1.177,6.12,1.857c1.979,0.681,3.711,1.516,5.194,2.506
			c1.484,0.989,2.675,2.197,3.572,3.621c0.896,1.424,1.345,3.157,1.345,5.199v0.186c0,1.919-0.435,3.667-1.302,5.246
			c-0.869,1.578-2.047,2.924-3.535,4.037c-1.489,1.115-3.241,1.982-5.256,2.601C34.857,208.884,32.67,209.193,30.314,209.193z"/>
		<path class="st0" d="M79.208,209.473c-3.172,0-6.17-0.574-8.999-1.721c-2.829-1.146-5.299-2.79-7.412-4.93
			c-2.114-2.14-3.793-4.73-5.035-7.769c-1.245-3.038-1.865-6.419-1.865-10.14v-0.186c0-3.411,0.558-6.606,1.674-9.582
			c1.116-2.977,2.683-5.567,4.699-7.769c2.014-2.201,4.386-3.922,7.116-5.164c2.729-1.239,5.705-1.86,8.931-1.86
			c3.535,0,6.635,0.697,9.303,2.093c2.666,1.396,4.914,3.241,6.744,5.534c1.829,2.296,3.194,4.917,4.094,7.862
			c0.897,2.947,1.348,6.001,1.348,9.163v1.024H59.06c0.126,3.148,0.764,6.005,1.917,8.566c1.154,2.562,2.633,4.724,4.441,6.483
			c1.807,1.76,3.911,3.12,6.31,4.076c2.399,0.956,4.909,1.434,7.528,1.434c3.679,0,6.949-0.837,9.817-2.511
			c2.866-1.675,5.236-3.722,7.106-6.141l2.233,1.767c-2.173,2.792-4.845,5.117-8.015,6.978
			C87.227,208.542,83.497,209.473,79.208,209.473z M96.643,183.332c-0.124-2.531-0.609-5-1.448-7.407
			c-0.842-2.407-2.026-4.554-3.553-6.438c-1.528-1.882-3.429-3.394-5.704-4.536s-4.877-1.714-7.806-1.714
			c-2.68,0-5.159,0.51-7.434,1.528c-2.275,1.019-4.253,2.422-5.937,4.213c-1.683,1.792-3.021,3.921-4.018,6.391
			s-1.559,5.124-1.684,7.963H96.643z"/>
		<path class="st0" d="M113.389,161.47h2.977v14.327c0.682-1.984,1.642-3.908,2.884-5.769c1.239-1.86,2.698-3.503,4.372-4.931
			c1.674-1.425,3.581-2.558,5.722-3.395c2.139-0.837,4.449-1.224,6.93-1.163v3.07h-0.465c-2.853,0-5.474,0.637-7.861,1.907
			c-2.388,1.271-4.435,2.947-6.139,5.023c-1.707,2.079-3.04,4.482-4,7.211c-0.963,2.73-1.442,5.52-1.442,8.372v22.234h-2.977V161.47
			z"/>
		<path class="st0" d="M142.134,161.47h3.441l19.258,43.631l19.35-43.631h3.256l-21.397,47.26h-2.419L142.134,161.47z"/>
		<path class="st0" d="M197.671,142.864h4.093v5.675h-4.093V142.864z M198.137,161.47h3.162v46.887h-3.162V161.47z"/>
		<path class="st0" d="M235.535,209.473c-3.35,0-6.483-0.651-9.398-1.953c-2.916-1.302-5.442-3.07-7.581-5.302
			s-3.83-4.822-5.07-7.769c-1.241-2.944-1.86-6.093-1.86-9.442v-0.186c0-3.286,0.619-6.419,1.86-9.396
			c1.241-2.977,2.931-5.582,5.07-7.815s4.665-4,7.581-5.302c2.915-1.302,6.078-1.953,9.491-1.953c2.17,0,4.154,0.241,5.954,0.72
			c1.798,0.482,3.441,1.116,4.931,1.907c1.488,0.791,2.884,1.714,4.186,2.769s2.512,2.171,3.629,3.348l-2.14,2.14
			c-2.047-2.17-4.404-4.046-7.07-5.628c-2.667-1.582-5.861-2.372-9.582-2.372c-2.979,0-5.723,0.572-8.234,1.714
			c-2.512,1.142-4.699,2.688-6.559,4.632c-1.861,1.946-3.318,4.217-4.373,6.81s-1.582,5.372-1.582,8.336v0.185
			c0,2.965,0.542,5.759,1.629,8.384c1.084,2.625,2.572,4.924,4.466,6.901c1.891,1.976,4.107,3.535,6.651,4.677
			c2.543,1.143,5.27,1.714,8.188,1.714c3.722,0,6.946-0.822,9.676-2.465c2.727-1.643,5.117-3.612,7.162-5.907l2.14,1.861
			c-2.296,2.667-4.963,4.9-8,6.697C243.658,208.573,239.937,209.473,235.535,209.473z"/>
		<path class="st0" d="M283.311,209.473c-3.172,0-6.17-0.574-8.999-1.721c-2.829-1.146-5.299-2.79-7.412-4.93
			c-2.114-2.14-3.793-4.73-5.035-7.769c-1.245-3.038-1.865-6.419-1.865-10.14v-0.186c0-3.411,0.558-6.606,1.674-9.582
			c1.116-2.977,2.683-5.567,4.699-7.769c2.014-2.201,4.386-3.922,7.116-5.164c2.729-1.239,5.705-1.86,8.931-1.86
			c3.535,0,6.635,0.697,9.303,2.093c2.666,1.396,4.914,3.241,6.744,5.534c1.829,2.296,3.194,4.917,4.094,7.862
			c0.897,2.947,1.348,6.001,1.348,9.163v1.024h-40.747c0.126,3.148,0.764,6.005,1.917,8.566c1.154,2.562,2.633,4.724,4.441,6.483
			c1.807,1.76,3.911,3.12,6.31,4.076s4.909,1.434,7.528,1.434c3.679,0,6.949-0.837,9.817-2.511c2.866-1.675,5.236-3.722,7.106-6.141
			l2.233,1.767c-2.173,2.792-4.845,5.117-8.015,6.978C291.329,208.542,287.599,209.473,283.311,209.473z M300.746,183.332
			c-0.124-2.531-0.609-5-1.448-7.407c-0.842-2.407-2.026-4.554-3.553-6.438c-1.528-1.882-3.429-3.394-5.704-4.536
			s-4.877-1.714-7.806-1.714c-2.68,0-5.159,0.51-7.434,1.528c-2.275,1.019-4.253,2.422-5.937,4.213
			c-1.683,1.792-3.021,3.921-4.018,6.391c-0.997,2.47-1.559,5.124-1.684,7.963H300.746z"/>
	</g>
	<g>
		<g>
			<g>
				<path class="st0" d="M60.969,137.153c-7.712,0-14.806-1.357-21.279-4.07c-6.475-2.713-12.067-6.377-16.78-10.997
					c-4.713-4.617-8.379-10.044-10.997-16.28c-2.619-6.234-3.927-12.924-3.927-20.065v-0.286c0-7.14,1.333-13.828,3.999-20.065
					c2.665-6.235,6.355-11.711,11.068-16.423c4.713-4.713,10.329-8.426,16.852-11.139c6.52-2.713,13.639-4.07,21.351-4.07
					c7.711,0,14.803,1.357,21.278,4.07c6.474,2.713,12.067,6.38,16.78,10.997c4.713,4.619,8.377,10.045,10.997,16.28
					c2.617,6.237,3.927,12.924,3.927,20.065v0.286c0,7.14-1.334,13.83-3.999,20.065c-2.666,6.237-6.355,11.711-11.068,16.423
					c-4.713,4.713-10.332,8.426-16.852,11.139C75.796,135.796,68.68,137.153,60.969,137.153z M61.255,116.874
					c4.377,0,8.425-0.807,12.138-2.428c3.713-1.618,6.878-3.856,9.498-6.712c2.617-2.856,4.663-6.163,6.141-9.925
					c1.475-3.76,2.214-7.783,2.214-12.067v-0.286c0-4.284-0.738-8.33-2.214-12.139c-1.478-3.807-3.571-7.14-6.284-9.997
					c-2.713-2.856-5.927-5.117-9.639-6.784c-3.713-1.664-7.762-2.499-12.139-2.499c-4.477,0-8.547,0.809-12.211,2.428
					c-3.666,1.62-6.808,3.856-9.426,6.712c-2.62,2.856-4.665,6.166-6.141,9.926c-1.477,3.762-2.214,7.783-2.214,12.067v0.286
					c0,4.284,0.737,8.332,2.214,12.139c1.475,3.809,3.571,7.14,6.284,9.997c2.713,2.856,5.902,5.119,9.568,6.784
					C52.708,116.042,56.777,116.874,61.255,116.874z"/>
				<path class="st0" d="M153.509,55.751H123.09V35.472h82.831v20.279h-30.419v79.688h-21.993V55.751z"/>
			</g>
		</g>
		<g>
			<g>
				<path class="st0" d="M224.841,35.472h40.845c5.998,0,11.353,0.834,16.066,2.499c4.713,1.667,8.712,4.023,11.996,7.069
					c3.285,3.049,5.806,6.69,7.57,10.925c1.76,4.237,2.642,8.926,2.642,14.067v0.286c0,5.808-1.048,10.902-3.142,15.281
					c-2.096,4.38-4.977,8.047-8.64,10.997c-3.667,2.952-7.951,5.165-12.853,6.641c-4.905,1.477-10.164,2.214-15.781,2.214h-16.71
					v29.99h-21.993V35.472z M264.258,85.884c5.52,0,9.805-1.451,12.853-4.356c3.045-2.903,4.569-6.498,4.569-10.782V70.46
					c0-4.949-1.596-8.711-4.783-11.282c-3.191-2.57-7.547-3.856-13.068-3.856h-16.994v30.562H264.258z"/>
			</g>
		</g>
	</g>
	<g>
		<g>
			<path class="st0" d="M462.411,78.2c-2.764,2.903-5.601,5.766-8.453,8.594v114.107H348.189V44.485h66.334
				c3.066-4.203,6.29-8.332,9.695-12.373h-83.411c-3.807,0-6.894,3.086-6.894,6.893v171.181c0,3.807,3.086,6.893,6.894,6.893H461.34
				c3.807,0,6.893-3.086,6.893-6.893V71.142C466.383,74.021,464.149,76.375,462.411,78.2z M401.074,211.988
				c-2.103,0-3.807-1.704-3.807-3.807c0-2.103,1.704-3.807,3.807-3.807c2.103,0,3.806,1.704,3.806,3.807
				C404.88,210.283,403.176,211.988,401.074,211.988z"/>
		</g>
		<path class="st0" d="M377.724,180.332c-4.664-1.671-13.153,18.91-5.844-2.496c9.767-20.48,18.695-41.095,29.265-60.831
			c10.491-19.589,22.635-38.292,33.968-57.438c-19.913,27.841-38.42,56.544-52.966,87.678c-0.622-0.12-1.243-0.239-1.865-0.359
			c0.285-4.695,0.12-9.469,0.927-14.073c6.515-37.16,22.363-70.127,46.657-98.74c7.646-9.006,17.645-16.119,27.067-23.456
			c3.376-2.629,8.101-4.054,12.425-4.834c11.341-2.046,19.937,7.926,15.545,18.529c-3.016,7.281-7.708,13.922-12.082,20.564
			c-2.579,3.917-4.281,7.534-3.369,12.472c1.401,7.59-3.298,13.132-7.982,18.05c-8.5,8.925-17.515,17.359-26.327,26.011
			c2.503-0.601,5.187-1.245,8.945-2.147c-1.88,10.54-6.771,18.714-13.287,25.045c-6.427,6.244-14.822,10.462-22.486,15.658
			c2.228,0.295,4.82,0.639,7.593,1.006c-4.188,9.011-14.597,14.35-25.918,13.407C384.646,162.83,381.245,171.429,377.724,180.332z"
			/>
	</g>
</g>
</svg>
