<?xml version="1.0" encoding="utf-8"?>
<!-- Generator: Adobe Illustrator 23.0.1, SVG Export Plug-In . SVG Version: 6.00 Build 0)  -->
<svg version="1.1" id="Livello_1" xmlns="http://www.w3.org/2000/svg" xmlns:xlink="http://www.w3.org/1999/xlink" x="0px" y="0px"
	 viewBox="0 0 231.9 44.2" style="enable-background:new 0 0 231.9 44.2;" xml:space="preserve">
<style type="text/css">
	.st0{fill:#E3696A;}
</style>
<g>
	<g>
		<path class="st0" d="M21.7,44.2C9.7,44.2,0,34.5,0,22.5S9.7,0.8,21.7,0.8c0.9,0,1.8,0.1,2.7,0.2L24,4c-0.8-0.1-1.6-0.1-2.4-0.1
			C11.4,3.7,3,12.1,3,22.5c0,10.3,8.4,18.8,18.8,18.8c10.1,0,18.4-8.1,18.8-18.1v-0.6v-13l-8.8-6l-8.4,6.1v12.7h-3V8.2L31.6,0
			l11.9,8v14.4C43.5,34.5,33.7,44.2,21.7,44.2"/>
	</g>
	<g>
		<path class="st0" d="M56.7,8.2V4.6h3.1v3.6H56.7z M56.7,33.8V12.9h3.1v20.9H56.7z"/>
		<path class="st0" d="M76.6,15.6H70v10c0,2.4,0.2,4,0.5,4.7c0.3,0.8,1.2,1.1,2.5,1.1l3.7-0.3l0.2,2.6c-1.9,0.3-3.3,0.5-4.3,0.5
			c-2.2,0-3.7-0.5-4.5-1.6c-0.8-1.1-1.3-3.1-1.3-6.1v-11h-3v-2.7h3V6.5H70v6.4h6.6V15.6z"/>
		<path class="st0" d="M95.2,19.2v10.7c0.1,1,0.9,1.6,2.4,1.8l-0.1,2.5c-2.2,0-3.9-0.6-5-1.7c-2.5,1.1-5,1.7-7.5,1.7
			c-1.9,0-3.4-0.5-4.4-1.6c-1-1.1-1.5-2.6-1.5-4.7c0-2,0.5-3.5,1.5-4.5s2.6-1.6,4.8-1.8L92,21v-1.8c0-1.4-0.3-2.4-0.9-3.1
			c-0.6-0.6-1.4-0.9-2.5-0.9c-2.2,0-4.5,0.1-6.9,0.4l-1.3,0.1l-0.1-2.4c3.1-0.6,5.8-0.9,8.1-0.9c2.4,0,4.1,0.5,5.2,1.6
			C94.7,15.2,95.2,16.9,95.2,19.2z M82.4,27.8c0,2.6,1.1,3.8,3.2,3.8c1.9,0,3.8-0.3,5.6-1l1-0.3v-6.9L85.9,24
			c-1.3,0.1-2.2,0.5-2.7,1.1C82.6,25.7,82.4,26.6,82.4,27.8z"/>
		<path class="st0" d="M101.7,33.8v-30h3.1v30H101.7z"/>
		<path class="st0" d="M111.1,8.2V4.6h3.1v3.6H111.1z M111.1,33.8V12.9h3.1v20.9H111.1z"/>
		<path class="st0" d="M135,19.2v10.7c0.1,1,0.9,1.6,2.4,1.8l-0.1,2.5c-2.2,0-3.9-0.6-5-1.7c-2.5,1.1-5,1.7-7.5,1.7
			c-1.9,0-3.4-0.5-4.4-1.6c-1-1.1-1.5-2.6-1.5-4.7c0-2,0.5-3.5,1.5-4.5s2.6-1.6,4.8-1.8l6.6-0.6v-1.8c0-1.4-0.3-2.4-0.9-3.1
			c-0.6-0.6-1.4-0.9-2.5-0.9c-2.2,0-4.5,0.1-6.9,0.4l-1.3,0.1l-0.1-2.4c3.1-0.6,5.8-0.9,8.1-0.9c2.4,0,4.1,0.5,5.2,1.6
			C134.4,15.2,135,16.9,135,19.2z M122.1,27.8c0,2.6,1.1,3.8,3.2,3.8c1.9,0,3.8-0.3,5.6-1l1-0.3v-6.9l-6.2,0.6
			c-1.3,0.1-2.2,0.5-2.7,1.1C122.4,25.7,122.1,26.6,122.1,27.8z"/>
		<path class="st0" d="M144.3,33.8h-3.1V12.9h3.1v1.5c2.3-1.3,4.4-1.9,6.5-1.9c2.8,0,4.7,0.8,5.6,2.3c1,1.5,1.4,4.2,1.4,8v11h-3.1
			V22.9c0-2.9-0.3-4.9-0.9-6c-0.6-1.1-1.8-1.6-3.7-1.6c-0.9,0-1.8,0.1-2.8,0.4c-1,0.3-1.7,0.5-2.3,0.8l-0.8,0.4v16.9H144.3z"/>
		<path class="st0" d="M161.7,12.9h3.1l4.2,18.2h0.7l5-17.8h3.3l5,17.8h0.7l4.2-18.2h3.1l-5,20.9h-5.2l-4.4-16.3L172,33.8h-5.2
			L161.7,12.9z"/>
		<path class="st0" d="M209.8,19.2v10.7c0.1,1,0.9,1.6,2.4,1.8l-0.1,2.5c-2.2,0-3.9-0.6-5-1.7c-2.5,1.1-5,1.7-7.5,1.7
			c-1.9,0-3.4-0.5-4.4-1.6c-1-1.1-1.5-2.6-1.5-4.7c0-2,0.5-3.5,1.5-4.5s2.6-1.6,4.8-1.8l6.6-0.6v-1.8c0-1.4-0.3-2.4-0.9-3.1
			c-0.6-0.6-1.4-0.9-2.5-0.9c-2.2,0-4.5,0.1-6.9,0.4l-1.3,0.1l-0.1-2.4c3.1-0.6,5.8-0.9,8.1-0.9c2.4,0,4.1,0.5,5.2,1.6
			C209.2,15.2,209.8,16.9,209.8,19.2z M196.9,27.8c0,2.6,1.1,3.8,3.2,3.8c1.9,0,3.8-0.3,5.6-1l1-0.3v-6.9l-6.2,0.6
			c-1.3,0.1-2.2,0.5-2.7,1.1C197.2,25.7,196.9,26.6,196.9,27.8z"/>
		<path class="st0" d="M213.8,12.9h3.1l5.2,18.2h1.4l5.3-18.2h3.1l-8.7,30.2h-3.1l2.7-9.3h-3.1L213.8,12.9z"/>
	</g>
</g>
</svg>
